<svg width="390" height="173" viewBox="0 0 390 173" fill="none" xmlns="http://www.w3.org/2000/svg">
<path fill-rule="evenodd" clip-rule="evenodd" d="M-18 140.133C-0.28327 134.176 43.6025 114.209 77.4118 81.9948C106.46 54.3169 144.328 54.8941 172.913 55.3298C185.916 55.528 196.998 55.6969 204.455 53.1641C210.209 51.2099 218.211 45.4984 228.01 38.5044C258.831 16.5048 307.429 -18.1835 359.759 11.4667C414.932 42.7278 404.873 120.277 392.946 155.144C276.792 161.895 41.9954 174.682 32.0393 171.823C22.0833 168.963 -5.46858 149.505 -18 140.133ZM311.815 29.615L310.938 32.1183C310.199 34.2292 308.441 36.0109 306.062 37.0626C308.441 38.1152 310.198 39.8969 310.938 42.0068L311.815 44.5111L312.693 42.0068C313.432 39.896 315.19 38.1152 317.569 37.0626C315.19 36.0109 313.433 34.2292 312.693 32.1183L311.815 29.615ZM107.618 107.255L106.741 109.759C106.001 111.87 104.244 113.651 101.864 114.703C104.244 115.756 106 117.537 106.741 119.647L107.618 122.152L108.495 119.647C109.235 117.536 110.992 115.756 113.372 114.703C110.992 113.651 109.236 111.87 108.495 109.759L107.618 107.255ZM366.938 104.118L367.815 101.615L368.693 104.118C369.433 106.229 371.19 108.011 373.569 109.063C371.19 110.115 369.432 111.896 368.693 114.007L367.815 116.511L366.938 114.007C366.198 111.897 364.441 110.115 362.062 109.063C364.441 108.011 366.199 106.229 366.938 104.118ZM221.843 72.4762L220.372 76.6746C219.132 80.2138 216.186 83.201 212.196 84.966C216.186 86.7309 219.132 89.7182 220.372 93.2574L221.843 97.4557L223.315 93.2574C224.555 89.7182 227.502 86.7309 231.491 84.966C227.502 83.2001 224.555 80.2128 223.315 76.6746L221.843 72.4762ZM300.372 99.6746L301.843 95.4762L303.315 99.6746C304.555 103.213 307.502 106.2 311.491 107.966C307.502 109.731 304.555 112.718 303.315 116.257L301.843 120.456L300.372 116.257C299.132 112.718 296.186 109.731 292.196 107.966C296.186 106.201 299.132 103.214 300.372 99.6746Z" fill="url(#paint0_linear_965_503)"/>
<defs>
<linearGradient id="paint0_linear_965_503" x1="357.045" y1="103.97" x2="272.078" y2="-72.7949" gradientUnits="userSpaceOnUse">
<stop stop-color="#00303D"/>
<stop offset="1" stop-color="#0094BD"/>
</linearGradient>
</defs>
</svg>
